# xmcd
#
# Track frame offsets: 
#        150
#        13626
#        22976
#        35496
#        49598
#        62803
#        75380
#        87215
#        99555
#        111880
#        128489
#        139711
#        149029
#        159872
#        180268
#
# Disc length: 2576 seconds
#
# Revision: 2
# Processed by: cddbd v1.5.2PL0 Copyright (c) Steve Scherf et al.
# Submitted via: ExactAudioCopy v1.3
#
DISCID=b40a0e0f
DTITLE=Various Artist - I Love Beach Music Vol. 2-2
DYEAR=2001
DGENRE=Beach Music
TTITLE0=The Tempations - My Girl
TTITLE1=The Tams - Be Young, Be Foolish, Be Happy
TTITLE2=Marvin Gaye - Stubborn Kind Of Fellow
TTITLE3=The Tymes - Ms. Grace
TTITLE4=The Isley Brothers - This Old Heart Of Mine
TTITLE5=The Four Tops - Baby I Need Your Lovin'
TTITLE6=Jerry Butler - Only The Strong Survive
TTITLE7=The Intruders - Cowboys To Girls
TTITLE8=The Four Tops - I Can't Help Myself (Sugar Pie, Honey Bunch)
TTITLE9=Lamont Dozier - Cool Me Out
TTITLE10=Jr. Walker and The All Stars - What Does It Take (To Win Your L
TTITLE10=ove)
TTITLE11=The Tams - What Kind Of Fool (Do You Think I Am)
TTITLE12=Bruce Channel - Hey! Baby
TTITLE13=The Temptations - Lady Soul
TTITLE14=Mary Wells - My Guy
EXTD=
EXTT0=
EXTT1=
EXTT2=
EXTT3=
EXTT4=
EXTT5=
EXTT6=
EXTT7=
EXTT8=
EXTT9=
EXTT10=
EXTT11=
EXTT12=
EXTT13=
EXTT14=
PLAYORDER=
